<mxfile host="Electron" modified="2023-04-20T05:41:19.555Z" agent="Mozilla/5.0 (Windows NT 10.0; Win64; x64) AppleWebKit/537.36 (KHTML, like Gecko) draw.io/21.1.2 Chrome/106.0.5249.199 Electron/21.4.3 Safari/537.36" etag="x8HlaiZIXXZTXnM9_GEH" version="21.1.2" type="device" pages="3">
  <diagram id="C5RBs43oDa-KdzZeNtuy" name="des opt 1">
    <mxGraphModel dx="1863" dy="614" grid="1" gridSize="10" guides="1" tooltips="1" connect="1" arrows="1" fold="1" page="1" pageScale="1" pageWidth="827" pageHeight="1169" math="0" shadow="0">
      <root>
        <mxCell id="WIyWlLk6GJQsqaUBKTNV-0" />
        <mxCell id="WIyWlLk6GJQsqaUBKTNV-1" parent="WIyWlLk6GJQsqaUBKTNV-0" />
        <mxCell id="PJ_j1x3K9BafVdnx8JG4-12" style="edgeStyle=orthogonalEdgeStyle;rounded=1;orthogonalLoop=1;jettySize=auto;html=1;exitX=0.5;exitY=1;exitDx=0;exitDy=0;entryX=0.5;entryY=0;entryDx=0;entryDy=0;exitPerimeter=0;" parent="WIyWlLk6GJQsqaUBKTNV-1" source="PJ_j1x3K9BafVdnx8JG4-37" target="PJ_j1x3K9BafVdnx8JG4-35" edge="1">
          <mxGeometry relative="1" as="geometry">
            <mxPoint x="-398" y="200" as="sourcePoint" />
            <mxPoint x="-393" y="260" as="targetPoint" />
          </mxGeometry>
        </mxCell>
        <mxCell id="PJ_j1x3K9BafVdnx8JG4-24" style="edgeStyle=orthogonalEdgeStyle;rounded=1;orthogonalLoop=1;jettySize=auto;html=1;exitX=0.5;exitY=1;exitDx=0;exitDy=0;entryX=0.5;entryY=0;entryDx=0;entryDy=0;exitPerimeter=0;" parent="WIyWlLk6GJQsqaUBKTNV-1" source="PJ_j1x3K9BafVdnx8JG4-36" target="1ICQgReLnfiIvhP6BBDh-3" edge="1">
          <mxGeometry relative="1" as="geometry">
            <mxPoint x="-400" y="645.4999999999999" as="sourcePoint" />
            <mxPoint x="-400" y="635.5" as="targetPoint" />
          </mxGeometry>
        </mxCell>
        <mxCell id="PJ_j1x3K9BafVdnx8JG4-14" value="No" style="text;html=1;strokeColor=none;fillColor=none;align=center;verticalAlign=middle;whiteSpace=wrap;rounded=0;" parent="WIyWlLk6GJQsqaUBKTNV-1" vertex="1">
          <mxGeometry x="-535" y="514" width="60" height="30" as="geometry" />
        </mxCell>
        <mxCell id="PJ_j1x3K9BafVdnx8JG4-15" value="Yes" style="text;html=1;strokeColor=none;fillColor=none;align=center;verticalAlign=middle;whiteSpace=wrap;rounded=0;" parent="WIyWlLk6GJQsqaUBKTNV-1" vertex="1">
          <mxGeometry x="-458" y="585.5" width="60" height="30" as="geometry" />
        </mxCell>
        <mxCell id="3SNbzd3iOcQ8QZhCoeAO-2" style="edgeStyle=orthogonalEdgeStyle;rounded=0;orthogonalLoop=1;jettySize=auto;html=1;exitX=0.5;exitY=1;exitDx=0;exitDy=0;exitPerimeter=0;entryX=0.5;entryY=0;entryDx=0;entryDy=0;" parent="WIyWlLk6GJQsqaUBKTNV-1" target="3SNbzd3iOcQ8QZhCoeAO-0" edge="1">
          <mxGeometry relative="1" as="geometry">
            <mxPoint x="-400" y="685.5" as="sourcePoint" />
          </mxGeometry>
        </mxCell>
        <mxCell id="uZlnAVck6TmtQqg-sQBy-6" style="edgeStyle=orthogonalEdgeStyle;rounded=0;orthogonalLoop=1;jettySize=auto;html=1;exitX=0.5;exitY=1;exitDx=0;exitDy=0;entryX=0.5;entryY=0;entryDx=0;entryDy=0;entryPerimeter=0;" parent="WIyWlLk6GJQsqaUBKTNV-1" source="PJ_j1x3K9BafVdnx8JG4-34" target="PJ_j1x3K9BafVdnx8JG4-36" edge="1">
          <mxGeometry relative="1" as="geometry" />
        </mxCell>
        <mxCell id="PJ_j1x3K9BafVdnx8JG4-34" value="VGG19-based&lt;br&gt;car crash accident detection model." style="rounded=1;whiteSpace=wrap;html=1;absoluteArcSize=1;arcSize=14;strokeWidth=2;fontSize=12;fillColor=#d5e8d4;strokeColor=#82b366;" parent="WIyWlLk6GJQsqaUBKTNV-1" vertex="1">
          <mxGeometry x="-480" y="389.5" width="160" height="60" as="geometry" />
        </mxCell>
        <mxCell id="uZlnAVck6TmtQqg-sQBy-4" style="edgeStyle=orthogonalEdgeStyle;rounded=0;orthogonalLoop=1;jettySize=auto;html=1;exitX=0.5;exitY=1;exitDx=0;exitDy=0;entryX=0.5;entryY=0;entryDx=0;entryDy=0;" parent="WIyWlLk6GJQsqaUBKTNV-1" source="PJ_j1x3K9BafVdnx8JG4-35" target="uZlnAVck6TmtQqg-sQBy-3" edge="1">
          <mxGeometry relative="1" as="geometry" />
        </mxCell>
        <mxCell id="PJ_j1x3K9BafVdnx8JG4-35" value="Retrieve footage" style="shape=parallelogram;html=1;strokeWidth=2;perimeter=parallelogramPerimeter;whiteSpace=wrap;rounded=1;arcSize=12;size=0.23;fontSize=12;fillColor=#ffe6cc;strokeColor=#d79b00;" parent="WIyWlLk6GJQsqaUBKTNV-1" vertex="1">
          <mxGeometry x="-510" y="230" width="220" height="60" as="geometry" />
        </mxCell>
        <mxCell id="T_VdZDXZkwJuGa_jbplB-2" style="edgeStyle=orthogonalEdgeStyle;rounded=0;orthogonalLoop=1;jettySize=auto;html=1;exitX=0;exitY=0.5;exitDx=0;exitDy=0;exitPerimeter=0;entryX=0;entryY=0.5;entryDx=0;entryDy=0;" parent="WIyWlLk6GJQsqaUBKTNV-1" source="PJ_j1x3K9BafVdnx8JG4-36" target="PJ_j1x3K9BafVdnx8JG4-34" edge="1">
          <mxGeometry relative="1" as="geometry">
            <mxPoint x="-475" y="438" as="targetPoint" />
            <Array as="points">
              <mxPoint x="-538" y="544.5" />
              <mxPoint x="-538" y="419.5" />
            </Array>
          </mxGeometry>
        </mxCell>
        <mxCell id="PJ_j1x3K9BafVdnx8JG4-36" value="Has an accident occurred?" style="strokeWidth=2;html=1;shape=mxgraph.flowchart.decision;whiteSpace=wrap;fontSize=12;fillColor=#fff2cc;strokeColor=#d6b656;" parent="WIyWlLk6GJQsqaUBKTNV-1" vertex="1">
          <mxGeometry x="-470" y="484" width="140" height="120" as="geometry" />
        </mxCell>
        <mxCell id="PJ_j1x3K9BafVdnx8JG4-37" value="&lt;span style=&quot;&quot;&gt;START&lt;/span&gt;" style="strokeWidth=2;html=1;shape=mxgraph.flowchart.start_1;whiteSpace=wrap;fontSize=12;fillColor=#fff2cc;strokeColor=#d6b656;" parent="WIyWlLk6GJQsqaUBKTNV-1" vertex="1">
          <mxGeometry x="-450" y="150" width="100" height="50" as="geometry" />
        </mxCell>
        <mxCell id="1ICQgReLnfiIvhP6BBDh-3" value="Obtain basic information of the accident." style="rounded=1;whiteSpace=wrap;html=1;absoluteArcSize=1;arcSize=14;strokeWidth=2;fontSize=12;fillColor=#dae8fc;strokeColor=#6c8ebf;" parent="WIyWlLk6GJQsqaUBKTNV-1" vertex="1">
          <mxGeometry x="-480" y="625.5" width="160" height="60" as="geometry" />
        </mxCell>
        <mxCell id="-Uk58m7aLw3qL5z0HjKj-1" value="" style="edgeStyle=orthogonalEdgeStyle;rounded=0;orthogonalLoop=1;jettySize=auto;html=1;" parent="WIyWlLk6GJQsqaUBKTNV-1" source="3SNbzd3iOcQ8QZhCoeAO-0" target="-Uk58m7aLw3qL5z0HjKj-0" edge="1">
          <mxGeometry relative="1" as="geometry" />
        </mxCell>
        <mxCell id="3SNbzd3iOcQ8QZhCoeAO-0" value="Create Alarm in the Monitoring Room" style="rounded=1;whiteSpace=wrap;html=1;absoluteArcSize=1;arcSize=14;strokeWidth=2;fontSize=12;fillColor=#dae8fc;strokeColor=#6c8ebf;" parent="WIyWlLk6GJQsqaUBKTNV-1" vertex="1">
          <mxGeometry x="-485" y="715.5" width="170" height="60" as="geometry" />
        </mxCell>
        <mxCell id="uZlnAVck6TmtQqg-sQBy-1" value="END" style="strokeWidth=2;html=1;shape=mxgraph.flowchart.start_1;whiteSpace=wrap;fontSize=12;fillColor=#f8cecc;strokeColor=#b85450;" parent="WIyWlLk6GJQsqaUBKTNV-1" vertex="1">
          <mxGeometry x="-450" y="880" width="100" height="50" as="geometry" />
        </mxCell>
        <mxCell id="uZlnAVck6TmtQqg-sQBy-7" style="edgeStyle=orthogonalEdgeStyle;rounded=0;orthogonalLoop=1;jettySize=auto;html=1;exitX=0.5;exitY=1;exitDx=0;exitDy=0;entryX=0.5;entryY=0;entryDx=0;entryDy=0;" parent="WIyWlLk6GJQsqaUBKTNV-1" source="uZlnAVck6TmtQqg-sQBy-3" target="PJ_j1x3K9BafVdnx8JG4-34" edge="1">
          <mxGeometry relative="1" as="geometry" />
        </mxCell>
        <mxCell id="uZlnAVck6TmtQqg-sQBy-3" value="Preprocess / resize the image to the model&#39;s input." style="rounded=1;whiteSpace=wrap;html=1;absoluteArcSize=1;arcSize=14;strokeWidth=2;fontSize=12;fillColor=#e1d5e7;strokeColor=#9673a6;" parent="WIyWlLk6GJQsqaUBKTNV-1" vertex="1">
          <mxGeometry x="-480" y="310" width="160" height="60" as="geometry" />
        </mxCell>
        <mxCell id="-Uk58m7aLw3qL5z0HjKj-2" value="" style="edgeStyle=orthogonalEdgeStyle;rounded=0;orthogonalLoop=1;jettySize=auto;html=1;" parent="WIyWlLk6GJQsqaUBKTNV-1" source="-Uk58m7aLw3qL5z0HjKj-0" target="uZlnAVck6TmtQqg-sQBy-1" edge="1">
          <mxGeometry relative="1" as="geometry" />
        </mxCell>
        <mxCell id="-Uk58m7aLw3qL5z0HjKj-0" value="Send SMS notification to emergency responders including the accident details." style="rounded=1;whiteSpace=wrap;html=1;absoluteArcSize=1;arcSize=14;strokeWidth=2;fontSize=12;fillColor=#dae8fc;strokeColor=#6c8ebf;" parent="WIyWlLk6GJQsqaUBKTNV-1" vertex="1">
          <mxGeometry x="-485" y="800" width="170" height="60" as="geometry" />
        </mxCell>
      </root>
    </mxGraphModel>
  </diagram>
  <diagram name="des opt 2" id="8yYU0vhEp97Y7mavfZoW">
    <mxGraphModel dx="1863" dy="614" grid="1" gridSize="10" guides="1" tooltips="1" connect="1" arrows="1" fold="1" page="1" pageScale="1" pageWidth="827" pageHeight="1169" math="0" shadow="0">
      <root>
        <mxCell id="8j8AHVbwqCqV7aGg-C96-0" />
        <mxCell id="8j8AHVbwqCqV7aGg-C96-1" parent="8j8AHVbwqCqV7aGg-C96-0" />
        <mxCell id="8j8AHVbwqCqV7aGg-C96-2" style="edgeStyle=orthogonalEdgeStyle;rounded=1;orthogonalLoop=1;jettySize=auto;html=1;exitX=0.5;exitY=1;exitDx=0;exitDy=0;entryX=0.5;entryY=0;entryDx=0;entryDy=0;exitPerimeter=0;" parent="8j8AHVbwqCqV7aGg-C96-1" source="8j8AHVbwqCqV7aGg-C96-13" target="8j8AHVbwqCqV7aGg-C96-10" edge="1">
          <mxGeometry relative="1" as="geometry">
            <mxPoint x="-398" y="200" as="sourcePoint" />
            <mxPoint x="-393" y="260" as="targetPoint" />
          </mxGeometry>
        </mxCell>
        <mxCell id="8j8AHVbwqCqV7aGg-C96-3" style="edgeStyle=orthogonalEdgeStyle;rounded=1;orthogonalLoop=1;jettySize=auto;html=1;exitX=0.5;exitY=1;exitDx=0;exitDy=0;entryX=0.5;entryY=0;entryDx=0;entryDy=0;exitPerimeter=0;" parent="8j8AHVbwqCqV7aGg-C96-1" source="8j8AHVbwqCqV7aGg-C96-12" target="8j8AHVbwqCqV7aGg-C96-14" edge="1">
          <mxGeometry relative="1" as="geometry">
            <mxPoint x="-400" y="645.4999999999999" as="sourcePoint" />
            <mxPoint x="-400" y="635.5" as="targetPoint" />
          </mxGeometry>
        </mxCell>
        <mxCell id="8j8AHVbwqCqV7aGg-C96-4" value="No" style="text;html=1;strokeColor=none;fillColor=none;align=center;verticalAlign=middle;whiteSpace=wrap;rounded=0;" parent="8j8AHVbwqCqV7aGg-C96-1" vertex="1">
          <mxGeometry x="-535" y="514" width="60" height="30" as="geometry" />
        </mxCell>
        <mxCell id="8j8AHVbwqCqV7aGg-C96-5" value="Yes" style="text;html=1;strokeColor=none;fillColor=none;align=center;verticalAlign=middle;whiteSpace=wrap;rounded=0;" parent="8j8AHVbwqCqV7aGg-C96-1" vertex="1">
          <mxGeometry x="-458" y="585.5" width="60" height="30" as="geometry" />
        </mxCell>
        <mxCell id="8j8AHVbwqCqV7aGg-C96-6" style="edgeStyle=orthogonalEdgeStyle;rounded=0;orthogonalLoop=1;jettySize=auto;html=1;exitX=0.5;exitY=1;exitDx=0;exitDy=0;exitPerimeter=0;entryX=0.5;entryY=0;entryDx=0;entryDy=0;" parent="8j8AHVbwqCqV7aGg-C96-1" target="8j8AHVbwqCqV7aGg-C96-16" edge="1">
          <mxGeometry relative="1" as="geometry">
            <mxPoint x="-400" y="685.5" as="sourcePoint" />
          </mxGeometry>
        </mxCell>
        <mxCell id="8j8AHVbwqCqV7aGg-C96-7" style="edgeStyle=orthogonalEdgeStyle;rounded=0;orthogonalLoop=1;jettySize=auto;html=1;exitX=0.5;exitY=1;exitDx=0;exitDy=0;entryX=0.5;entryY=0;entryDx=0;entryDy=0;entryPerimeter=0;" parent="8j8AHVbwqCqV7aGg-C96-1" source="8j8AHVbwqCqV7aGg-C96-8" target="8j8AHVbwqCqV7aGg-C96-12" edge="1">
          <mxGeometry relative="1" as="geometry" />
        </mxCell>
        <mxCell id="8j8AHVbwqCqV7aGg-C96-8" value="InceptionV3-based&lt;br&gt;car crash accident detection model." style="rounded=1;whiteSpace=wrap;html=1;absoluteArcSize=1;arcSize=14;strokeWidth=2;fontSize=12;fillColor=#d5e8d4;strokeColor=#82b366;" parent="8j8AHVbwqCqV7aGg-C96-1" vertex="1">
          <mxGeometry x="-480" y="389.5" width="160" height="60" as="geometry" />
        </mxCell>
        <mxCell id="8j8AHVbwqCqV7aGg-C96-9" style="edgeStyle=orthogonalEdgeStyle;rounded=0;orthogonalLoop=1;jettySize=auto;html=1;exitX=0.5;exitY=1;exitDx=0;exitDy=0;entryX=0.5;entryY=0;entryDx=0;entryDy=0;" parent="8j8AHVbwqCqV7aGg-C96-1" source="8j8AHVbwqCqV7aGg-C96-10" target="8j8AHVbwqCqV7aGg-C96-19" edge="1">
          <mxGeometry relative="1" as="geometry" />
        </mxCell>
        <mxCell id="8j8AHVbwqCqV7aGg-C96-10" value="Retrieve footage" style="shape=parallelogram;html=1;strokeWidth=2;perimeter=parallelogramPerimeter;whiteSpace=wrap;rounded=1;arcSize=12;size=0.23;fontSize=12;fillColor=#ffe6cc;strokeColor=#d79b00;" parent="8j8AHVbwqCqV7aGg-C96-1" vertex="1">
          <mxGeometry x="-510" y="230" width="220" height="60" as="geometry" />
        </mxCell>
        <mxCell id="8j8AHVbwqCqV7aGg-C96-11" style="edgeStyle=orthogonalEdgeStyle;rounded=0;orthogonalLoop=1;jettySize=auto;html=1;exitX=0;exitY=0.5;exitDx=0;exitDy=0;exitPerimeter=0;entryX=0;entryY=0.5;entryDx=0;entryDy=0;" parent="8j8AHVbwqCqV7aGg-C96-1" source="8j8AHVbwqCqV7aGg-C96-12" target="8j8AHVbwqCqV7aGg-C96-8" edge="1">
          <mxGeometry relative="1" as="geometry">
            <mxPoint x="-475" y="438" as="targetPoint" />
            <Array as="points">
              <mxPoint x="-538" y="544.5" />
              <mxPoint x="-538" y="419.5" />
            </Array>
          </mxGeometry>
        </mxCell>
        <mxCell id="8j8AHVbwqCqV7aGg-C96-12" value="Has an accident occurred?" style="strokeWidth=2;html=1;shape=mxgraph.flowchart.decision;whiteSpace=wrap;fontSize=12;fillColor=#fff2cc;strokeColor=#d6b656;" parent="8j8AHVbwqCqV7aGg-C96-1" vertex="1">
          <mxGeometry x="-470" y="484" width="140" height="120" as="geometry" />
        </mxCell>
        <mxCell id="8j8AHVbwqCqV7aGg-C96-13" value="&lt;span style=&quot;&quot;&gt;START&lt;/span&gt;" style="strokeWidth=2;html=1;shape=mxgraph.flowchart.start_1;whiteSpace=wrap;fontSize=12;fillColor=#fff2cc;strokeColor=#d6b656;" parent="8j8AHVbwqCqV7aGg-C96-1" vertex="1">
          <mxGeometry x="-450" y="150" width="100" height="50" as="geometry" />
        </mxCell>
        <mxCell id="8j8AHVbwqCqV7aGg-C96-14" value="Obtain basic information of the accident." style="rounded=1;whiteSpace=wrap;html=1;absoluteArcSize=1;arcSize=14;strokeWidth=2;fontSize=12;fillColor=#dae8fc;strokeColor=#6c8ebf;" parent="8j8AHVbwqCqV7aGg-C96-1" vertex="1">
          <mxGeometry x="-480" y="625.5" width="160" height="60" as="geometry" />
        </mxCell>
        <mxCell id="8j8AHVbwqCqV7aGg-C96-15" value="" style="edgeStyle=orthogonalEdgeStyle;rounded=0;orthogonalLoop=1;jettySize=auto;html=1;" parent="8j8AHVbwqCqV7aGg-C96-1" source="8j8AHVbwqCqV7aGg-C96-16" target="8j8AHVbwqCqV7aGg-C96-21" edge="1">
          <mxGeometry relative="1" as="geometry" />
        </mxCell>
        <mxCell id="8j8AHVbwqCqV7aGg-C96-16" value="Create Alarm in the Monitoring Room" style="rounded=1;whiteSpace=wrap;html=1;absoluteArcSize=1;arcSize=14;strokeWidth=2;fontSize=12;fillColor=#dae8fc;strokeColor=#6c8ebf;" parent="8j8AHVbwqCqV7aGg-C96-1" vertex="1">
          <mxGeometry x="-485" y="715.5" width="170" height="60" as="geometry" />
        </mxCell>
        <mxCell id="8j8AHVbwqCqV7aGg-C96-17" value="END" style="strokeWidth=2;html=1;shape=mxgraph.flowchart.start_1;whiteSpace=wrap;fontSize=12;fillColor=#f8cecc;strokeColor=#b85450;" parent="8j8AHVbwqCqV7aGg-C96-1" vertex="1">
          <mxGeometry x="-450" y="880" width="100" height="50" as="geometry" />
        </mxCell>
        <mxCell id="8j8AHVbwqCqV7aGg-C96-18" style="edgeStyle=orthogonalEdgeStyle;rounded=0;orthogonalLoop=1;jettySize=auto;html=1;exitX=0.5;exitY=1;exitDx=0;exitDy=0;entryX=0.5;entryY=0;entryDx=0;entryDy=0;" parent="8j8AHVbwqCqV7aGg-C96-1" source="8j8AHVbwqCqV7aGg-C96-19" target="8j8AHVbwqCqV7aGg-C96-8" edge="1">
          <mxGeometry relative="1" as="geometry" />
        </mxCell>
        <mxCell id="8j8AHVbwqCqV7aGg-C96-19" value="Preprocess / resize the image to the model&#39;s input." style="rounded=1;whiteSpace=wrap;html=1;absoluteArcSize=1;arcSize=14;strokeWidth=2;fontSize=12;fillColor=#e1d5e7;strokeColor=#9673a6;" parent="8j8AHVbwqCqV7aGg-C96-1" vertex="1">
          <mxGeometry x="-480" y="310" width="160" height="60" as="geometry" />
        </mxCell>
        <mxCell id="8j8AHVbwqCqV7aGg-C96-20" value="" style="edgeStyle=orthogonalEdgeStyle;rounded=0;orthogonalLoop=1;jettySize=auto;html=1;" parent="8j8AHVbwqCqV7aGg-C96-1" source="8j8AHVbwqCqV7aGg-C96-21" target="8j8AHVbwqCqV7aGg-C96-17" edge="1">
          <mxGeometry relative="1" as="geometry" />
        </mxCell>
        <mxCell id="8j8AHVbwqCqV7aGg-C96-21" value="Send SMS notification and Alert Call to the emergency responders including the accident details." style="rounded=1;whiteSpace=wrap;html=1;absoluteArcSize=1;arcSize=14;strokeWidth=2;fontSize=12;fillColor=#dae8fc;strokeColor=#6c8ebf;" parent="8j8AHVbwqCqV7aGg-C96-1" vertex="1">
          <mxGeometry x="-485" y="800" width="170" height="60" as="geometry" />
        </mxCell>
      </root>
    </mxGraphModel>
  </diagram>
  <diagram name="des opt 3" id="t9_CzGLGxzuerR9Dxb2D">
    <mxGraphModel dx="1863" dy="614" grid="1" gridSize="10" guides="1" tooltips="1" connect="1" arrows="1" fold="1" page="1" pageScale="1" pageWidth="827" pageHeight="1169" math="0" shadow="0">
      <root>
        <mxCell id="CpicgYLtOJ_hZgE3NChx-0" />
        <mxCell id="CpicgYLtOJ_hZgE3NChx-1" parent="CpicgYLtOJ_hZgE3NChx-0" />
        <mxCell id="CpicgYLtOJ_hZgE3NChx-2" style="edgeStyle=orthogonalEdgeStyle;rounded=1;orthogonalLoop=1;jettySize=auto;html=1;exitX=0.5;exitY=1;exitDx=0;exitDy=0;entryX=0.5;entryY=0;entryDx=0;entryDy=0;exitPerimeter=0;" parent="CpicgYLtOJ_hZgE3NChx-1" source="CpicgYLtOJ_hZgE3NChx-13" target="CpicgYLtOJ_hZgE3NChx-10" edge="1">
          <mxGeometry relative="1" as="geometry">
            <mxPoint x="-398" y="200" as="sourcePoint" />
            <mxPoint x="-393" y="260" as="targetPoint" />
          </mxGeometry>
        </mxCell>
        <mxCell id="CpicgYLtOJ_hZgE3NChx-3" style="edgeStyle=orthogonalEdgeStyle;rounded=1;orthogonalLoop=1;jettySize=auto;html=1;exitX=0.5;exitY=1;exitDx=0;exitDy=0;entryX=0.5;entryY=0;entryDx=0;entryDy=0;exitPerimeter=0;" parent="CpicgYLtOJ_hZgE3NChx-1" source="CpicgYLtOJ_hZgE3NChx-12" target="CpicgYLtOJ_hZgE3NChx-14" edge="1">
          <mxGeometry relative="1" as="geometry">
            <mxPoint x="-400" y="645.4999999999999" as="sourcePoint" />
            <mxPoint x="-400" y="635.5" as="targetPoint" />
          </mxGeometry>
        </mxCell>
        <mxCell id="CpicgYLtOJ_hZgE3NChx-4" value="No" style="text;html=1;strokeColor=none;fillColor=none;align=center;verticalAlign=middle;whiteSpace=wrap;rounded=0;" parent="CpicgYLtOJ_hZgE3NChx-1" vertex="1">
          <mxGeometry x="-535" y="514" width="60" height="30" as="geometry" />
        </mxCell>
        <mxCell id="CpicgYLtOJ_hZgE3NChx-5" value="Yes" style="text;html=1;strokeColor=none;fillColor=none;align=center;verticalAlign=middle;whiteSpace=wrap;rounded=0;" parent="CpicgYLtOJ_hZgE3NChx-1" vertex="1">
          <mxGeometry x="-458" y="585.5" width="60" height="30" as="geometry" />
        </mxCell>
        <mxCell id="CpicgYLtOJ_hZgE3NChx-6" style="edgeStyle=orthogonalEdgeStyle;rounded=0;orthogonalLoop=1;jettySize=auto;html=1;exitX=0.5;exitY=1;exitDx=0;exitDy=0;exitPerimeter=0;entryX=0.5;entryY=0;entryDx=0;entryDy=0;" parent="CpicgYLtOJ_hZgE3NChx-1" target="CpicgYLtOJ_hZgE3NChx-16" edge="1">
          <mxGeometry relative="1" as="geometry">
            <mxPoint x="-400" y="685.5" as="sourcePoint" />
          </mxGeometry>
        </mxCell>
        <mxCell id="CpicgYLtOJ_hZgE3NChx-7" style="edgeStyle=orthogonalEdgeStyle;rounded=0;orthogonalLoop=1;jettySize=auto;html=1;exitX=0.5;exitY=1;exitDx=0;exitDy=0;entryX=0.5;entryY=0;entryDx=0;entryDy=0;entryPerimeter=0;" parent="CpicgYLtOJ_hZgE3NChx-1" source="CpicgYLtOJ_hZgE3NChx-8" target="CpicgYLtOJ_hZgE3NChx-12" edge="1">
          <mxGeometry relative="1" as="geometry" />
        </mxCell>
        <mxCell id="CpicgYLtOJ_hZgE3NChx-8" value="ResNet152V2-based&lt;br&gt;car crash accident detection model." style="rounded=1;whiteSpace=wrap;html=1;absoluteArcSize=1;arcSize=14;strokeWidth=2;fontSize=12;fillColor=#d5e8d4;strokeColor=#82b366;" parent="CpicgYLtOJ_hZgE3NChx-1" vertex="1">
          <mxGeometry x="-480" y="389.5" width="160" height="60" as="geometry" />
        </mxCell>
        <mxCell id="CpicgYLtOJ_hZgE3NChx-9" style="edgeStyle=orthogonalEdgeStyle;rounded=0;orthogonalLoop=1;jettySize=auto;html=1;exitX=0.5;exitY=1;exitDx=0;exitDy=0;entryX=0.5;entryY=0;entryDx=0;entryDy=0;" parent="CpicgYLtOJ_hZgE3NChx-1" source="CpicgYLtOJ_hZgE3NChx-10" target="CpicgYLtOJ_hZgE3NChx-19" edge="1">
          <mxGeometry relative="1" as="geometry" />
        </mxCell>
        <mxCell id="CpicgYLtOJ_hZgE3NChx-10" value="Retrieve footage" style="shape=parallelogram;html=1;strokeWidth=2;perimeter=parallelogramPerimeter;whiteSpace=wrap;rounded=1;arcSize=12;size=0.23;fontSize=12;fillColor=#ffe6cc;strokeColor=#d79b00;" parent="CpicgYLtOJ_hZgE3NChx-1" vertex="1">
          <mxGeometry x="-510" y="230" width="220" height="60" as="geometry" />
        </mxCell>
        <mxCell id="CpicgYLtOJ_hZgE3NChx-11" style="edgeStyle=orthogonalEdgeStyle;rounded=0;orthogonalLoop=1;jettySize=auto;html=1;exitX=0;exitY=0.5;exitDx=0;exitDy=0;exitPerimeter=0;entryX=0;entryY=0.5;entryDx=0;entryDy=0;" parent="CpicgYLtOJ_hZgE3NChx-1" source="CpicgYLtOJ_hZgE3NChx-12" target="CpicgYLtOJ_hZgE3NChx-8" edge="1">
          <mxGeometry relative="1" as="geometry">
            <mxPoint x="-475" y="438" as="targetPoint" />
            <Array as="points">
              <mxPoint x="-538" y="544.5" />
              <mxPoint x="-538" y="419.5" />
            </Array>
          </mxGeometry>
        </mxCell>
        <mxCell id="CpicgYLtOJ_hZgE3NChx-12" value="Has an accident occurred?" style="strokeWidth=2;html=1;shape=mxgraph.flowchart.decision;whiteSpace=wrap;fontSize=12;fillColor=#fff2cc;strokeColor=#d6b656;" parent="CpicgYLtOJ_hZgE3NChx-1" vertex="1">
          <mxGeometry x="-470" y="484" width="140" height="120" as="geometry" />
        </mxCell>
        <mxCell id="CpicgYLtOJ_hZgE3NChx-13" value="&lt;span style=&quot;&quot;&gt;START&lt;/span&gt;" style="strokeWidth=2;html=1;shape=mxgraph.flowchart.start_1;whiteSpace=wrap;fontSize=12;fillColor=#fff2cc;strokeColor=#d6b656;" parent="CpicgYLtOJ_hZgE3NChx-1" vertex="1">
          <mxGeometry x="-450" y="150" width="100" height="50" as="geometry" />
        </mxCell>
        <mxCell id="CpicgYLtOJ_hZgE3NChx-14" value="Obtain basic information of the accident." style="rounded=1;whiteSpace=wrap;html=1;absoluteArcSize=1;arcSize=14;strokeWidth=2;fontSize=12;fillColor=#dae8fc;strokeColor=#6c8ebf;" parent="CpicgYLtOJ_hZgE3NChx-1" vertex="1">
          <mxGeometry x="-480" y="625.5" width="160" height="60" as="geometry" />
        </mxCell>
        <mxCell id="CpicgYLtOJ_hZgE3NChx-15" value="" style="edgeStyle=orthogonalEdgeStyle;rounded=0;orthogonalLoop=1;jettySize=auto;html=1;" parent="CpicgYLtOJ_hZgE3NChx-1" source="CpicgYLtOJ_hZgE3NChx-16" target="CpicgYLtOJ_hZgE3NChx-21" edge="1">
          <mxGeometry relative="1" as="geometry" />
        </mxCell>
        <mxCell id="CpicgYLtOJ_hZgE3NChx-16" value="Create Alarm in the Monitoring Room" style="rounded=1;whiteSpace=wrap;html=1;absoluteArcSize=1;arcSize=14;strokeWidth=2;fontSize=12;fillColor=#dae8fc;strokeColor=#6c8ebf;" parent="CpicgYLtOJ_hZgE3NChx-1" vertex="1">
          <mxGeometry x="-485" y="715.5" width="170" height="60" as="geometry" />
        </mxCell>
        <mxCell id="CpicgYLtOJ_hZgE3NChx-17" value="END" style="strokeWidth=2;html=1;shape=mxgraph.flowchart.start_1;whiteSpace=wrap;fontSize=12;fillColor=#f8cecc;strokeColor=#b85450;" parent="CpicgYLtOJ_hZgE3NChx-1" vertex="1">
          <mxGeometry x="-450" y="880" width="100" height="50" as="geometry" />
        </mxCell>
        <mxCell id="CpicgYLtOJ_hZgE3NChx-18" style="edgeStyle=orthogonalEdgeStyle;rounded=0;orthogonalLoop=1;jettySize=auto;html=1;exitX=0.5;exitY=1;exitDx=0;exitDy=0;entryX=0.5;entryY=0;entryDx=0;entryDy=0;" parent="CpicgYLtOJ_hZgE3NChx-1" source="CpicgYLtOJ_hZgE3NChx-19" target="CpicgYLtOJ_hZgE3NChx-8" edge="1">
          <mxGeometry relative="1" as="geometry" />
        </mxCell>
        <mxCell id="CpicgYLtOJ_hZgE3NChx-19" value="Preprocess / resize the image to the model&#39;s input." style="rounded=1;whiteSpace=wrap;html=1;absoluteArcSize=1;arcSize=14;strokeWidth=2;fontSize=12;fillColor=#e1d5e7;strokeColor=#9673a6;" parent="CpicgYLtOJ_hZgE3NChx-1" vertex="1">
          <mxGeometry x="-480" y="310" width="160" height="60" as="geometry" />
        </mxCell>
        <mxCell id="CpicgYLtOJ_hZgE3NChx-20" value="" style="edgeStyle=orthogonalEdgeStyle;rounded=0;orthogonalLoop=1;jettySize=auto;html=1;" parent="CpicgYLtOJ_hZgE3NChx-1" source="CpicgYLtOJ_hZgE3NChx-21" target="CpicgYLtOJ_hZgE3NChx-17" edge="1">
          <mxGeometry relative="1" as="geometry" />
        </mxCell>
        <mxCell id="CpicgYLtOJ_hZgE3NChx-21" value="Send SMS notification and Alert Call to the emergency responders including the accident details." style="rounded=1;whiteSpace=wrap;html=1;absoluteArcSize=1;arcSize=14;strokeWidth=2;fontSize=12;fillColor=#dae8fc;strokeColor=#6c8ebf;" parent="CpicgYLtOJ_hZgE3NChx-1" vertex="1">
          <mxGeometry x="-485" y="800" width="170" height="60" as="geometry" />
        </mxCell>
      </root>
    </mxGraphModel>
  </diagram>
</mxfile>
